<?xml version="1.0" encoding="UTF-8" standalone="no"?>
<!DOCTYPE svg PUBLIC "-//W3C//DTD SVG 1.1//EN"
 "http://www.w3.org/Graphics/SVG/1.1/DTD/svg11.dtd">
<!-- Generated by graphviz version 8.1.0 (0)
 -->
<!-- Pages: 1 -->
<svg width="1388pt" height="2039pt"
 viewBox="0.00 0.00 1388.16 2038.94" xmlns="http://www.w3.org/2000/svg" xmlns:xlink="http://www.w3.org/1999/xlink">
<g id="graph0" class="graph" transform="scale(1 1) rotate(0) translate(4 2034.94)">
<polygon fill="white" stroke="none" points="-4,4 -4,-2034.94 1384.16,-2034.94 1384.16,4 -4,4"/>
<!-- chi08mark -->
<g id="node1" class="node">
<title>chi08mark</title>
<polygon fill="none" stroke="black" points="965.68,-619.72 783.93,-619.72 783.93,-546.22 965.68,-546.22 965.68,-619.72"/>
<text text-anchor="middle" x="874.8" y="-602.42" font-family="Times,serif" font-size="14.00">Paper</text>
<text text-anchor="middle" x="874.8" y="-569.92" font-family="Times,serif" font-size="14.00">The Cost of Interrupted Work:</text>
<text text-anchor="middle" x="874.8" y="-553.42" font-family="Times,serif" font-size="14.00">More Speed and Stress</text>
</g>
<!-- chi2004 -->
<g id="node2" class="node">
<title>chi2004</title>
<polygon fill="none" stroke="black" points="1359.16,-627.97 1130.16,-627.97 1130.16,-537.97 1359.16,-537.97 1359.16,-627.97"/>
<text text-anchor="middle" x="1244.66" y="-610.67" font-family="Times,serif" font-size="14.00">Paper</text>
<text text-anchor="middle" x="1244.66" y="-578.17" font-family="Times,serif" font-size="14.00">If Not Now, When?:</text>
<text text-anchor="middle" x="1244.66" y="-561.67" font-family="Times,serif" font-size="14.00">The Effects of Interruption at Different</text>
<text text-anchor="middle" x="1244.66" y="-545.17" font-family="Times,serif" font-size="14.00">Moments Within Task Execution</text>
</g>
<!-- chi08mark&#45;&gt;chi2004 -->
<g id="edge1" class="edge">
<title>chi08mark&#45;&gt;chi2004</title>
<path fill="none" stroke="black" d="M965.79,-582.97C1011.86,-582.97 1068.69,-582.97 1118.92,-582.97"/>
<polygon fill="black" stroke="black" points="1118.86,-586.47 1128.86,-582.97 1118.86,-579.47 1118.86,-586.47"/>
<text text-anchor="middle" x="1083.29" y="-586.17" font-family="Times,serif" font-size="14.00">[1]</text>
</g>
<!-- taskdiary -->
<g id="node3" class="node">
<title>taskdiary</title>
<polygon fill="none" stroke="black" points="1328.41,-519.72 1160.91,-519.72 1160.91,-446.22 1328.41,-446.22 1328.41,-519.72"/>
<text text-anchor="middle" x="1244.66" y="-502.42" font-family="Times,serif" font-size="14.00">Paper</text>
<text text-anchor="middle" x="1244.66" y="-469.92" font-family="Times,serif" font-size="14.00">A Diary Study of Task</text>
<text text-anchor="middle" x="1244.66" y="-453.42" font-family="Times,serif" font-size="14.00">Switching and Interruptions</text>
</g>
<!-- chi08mark&#45;&gt;taskdiary -->
<g id="edge2" class="edge">
<title>chi08mark&#45;&gt;taskdiary</title>
<path fill="none" stroke="black" d="M965.79,-558.51C1021.76,-543.3 1093.59,-523.77 1150.2,-508.38"/>
<polygon fill="black" stroke="black" points="1150.85,-511.56 1159.58,-505.56 1149.01,-504.8 1150.85,-511.56"/>
<text text-anchor="middle" x="1083.29" y="-531.17" font-family="Times,serif" font-size="14.00">[3]</text>
</g>
<!-- chi2007 -->
<g id="node4" class="node">
<title>chi2007</title>
<polygon fill="none" stroke="black" points="1380.16,-719.72 1109.16,-719.72 1109.16,-646.22 1380.16,-646.22 1380.16,-719.72"/>
<text text-anchor="middle" x="1244.66" y="-702.42" font-family="Times,serif" font-size="14.00">Paper</text>
<text text-anchor="middle" x="1244.66" y="-669.92" font-family="Times,serif" font-size="14.00">Disruption and Recovery of Computing Tasks:</text>
<text text-anchor="middle" x="1244.66" y="-653.42" font-family="Times,serif" font-size="14.00">Field Study, Analysis, and Directions</text>
</g>
<!-- chi08mark&#45;&gt;chi2007 -->
<g id="edge3" class="edge">
<title>chi08mark&#45;&gt;chi2007</title>
<path fill="none" stroke="black" d="M965.79,-607.44C1005.65,-618.27 1053.56,-631.29 1098.28,-643.45"/>
<polygon fill="black" stroke="black" points="1097.1,-647.03 1107.67,-646.28 1098.94,-640.28 1097.1,-647.03"/>
<text text-anchor="middle" x="1083.29" y="-642.17" font-family="Times,serif" font-size="14.00">[9]</text>
</g>
<!-- chi2005 -->
<g id="node5" class="node">
<title>chi2005</title>
<polygon fill="none" stroke="black" points="521.68,-2023.97 384.93,-2023.97 384.93,-1933.97 521.68,-1933.97 521.68,-2023.97"/>
<text text-anchor="middle" x="453.31" y="-2006.67" font-family="Times,serif" font-size="14.00">Paper</text>
<text text-anchor="middle" x="453.31" y="-1974.17" font-family="Times,serif" font-size="14.00">No Task Left Behind?</text>
<text text-anchor="middle" x="453.31" y="-1957.67" font-family="Times,serif" font-size="14.00">Examining the Nature</text>
<text text-anchor="middle" x="453.31" y="-1941.17" font-family="Times,serif" font-size="14.00">of Fragmented Work</text>
</g>
<!-- devinterrupted -->
<g id="node6" class="node">
<title>devinterrupted</title>
<ellipse fill="none" stroke="black" cx="453.31" cy="-515.97" rx="88.21" ry="51.97"/>
<text text-anchor="middle" x="453.31" y="-535.42" font-family="Times,serif" font-size="14.00">Dev Interrupted</text>
<text text-anchor="middle" x="453.31" y="-502.92" font-family="Times,serif" font-size="14.00">3 Proven Ways To</text>
<text text-anchor="middle" x="453.31" y="-486.42" font-family="Times,serif" font-size="14.00">Improve Dev Focus</text>
</g>
<!-- devinterrupted&#45;&gt;chi08mark -->
<g id="edge4" class="edge">
<title>devinterrupted&#45;&gt;chi08mark</title>
<path fill="none" stroke="black" d="M538.95,-529.49C606.44,-540.27 701.18,-555.4 772.67,-566.82"/>
<polygon fill="black" stroke="black" points="772.06,-570.43 782.49,-568.55 773.17,-563.51 772.06,-570.43"/>
</g>
<!-- loom -->
<g id="node7" class="node">
<title>loom</title>
<ellipse fill="none" stroke="black" cx="453.31" cy="-393.97" rx="131.17" ry="51.97"/>
<text text-anchor="middle" x="453.31" y="-413.42" font-family="Times,serif" font-size="14.00">Loom</text>
<text text-anchor="middle" x="453.31" y="-380.92" font-family="Times,serif" font-size="14.00">The Cost of Context Switching</text>
<text text-anchor="middle" x="453.31" y="-364.42" font-family="Times,serif" font-size="14.00">(and How To Avoid It)</text>
</g>
<!-- loom&#45;&gt;chi08mark -->
<g id="edge5" class="edge">
<title>loom&#45;&gt;chi08mark</title>
<path fill="none" stroke="black" d="M553.8,-427.56C576.81,-435.97 601.03,-445.36 623.19,-454.97 682.85,-480.86 748.24,-514.44 797.25,-540.71"/>
<polygon fill="black" stroke="black" points="795.37,-544.21 805.83,-545.86 798.68,-538.04 795.37,-544.21"/>
</g>
<!-- paladin -->
<g id="node8" class="node">
<title>paladin</title>
<ellipse fill="none" stroke="black" cx="453.31" cy="-283.97" rx="137" ry="40.31"/>
<text text-anchor="middle" x="453.31" y="-295.17" font-family="Times,serif" font-size="14.00">Paladin</text>
<text text-anchor="middle" x="453.31" y="-262.67" font-family="Times,serif" font-size="14.00">Dealing with Work Interruptions</text>
</g>
<!-- paladin&#45;&gt;chi08mark -->
<g id="edge6" class="edge">
<title>paladin&#45;&gt;chi08mark</title>
<path fill="none" stroke="black" d="M565.3,-307.51C585.32,-314.14 605.45,-322.5 623.19,-332.97 714.12,-386.65 795.87,-480.88 839.82,-537.06"/>
<polygon fill="black" stroke="black" points="837.65,-538.97 846.54,-544.73 843.18,-534.68 837.65,-538.97"/>
<text text-anchor="middle" x="657.69" y="-369.17" font-family="Times,serif" font-size="14.00">Quote</text>
</g>
<!-- lifehacker -->
<g id="node9" class="node">
<title>lifehacker</title>
<ellipse fill="none" stroke="black" cx="453.31" cy="-1137.97" rx="94.05" ry="63.64"/>
<text text-anchor="middle" x="453.31" y="-1165.67" font-family="Times,serif" font-size="14.00">lifehacker</text>
<text text-anchor="middle" x="453.31" y="-1133.17" font-family="Times,serif" font-size="14.00">How Long It Takes</text>
<text text-anchor="middle" x="453.31" y="-1116.67" font-family="Times,serif" font-size="14.00">to Get Back on Track</text>
<text text-anchor="middle" x="453.31" y="-1100.17" font-family="Times,serif" font-size="14.00">After a Distraction</text>
</g>
<!-- lifehacker&#45;&gt;chi08mark -->
<g id="edge7" class="edge">
<title>lifehacker&#45;&gt;chi08mark</title>
<path fill="none" stroke="black" stroke-dasharray="1,5" d="M540.41,-1113.76C569.24,-1102.48 599.93,-1086.63 623.19,-1064.97 757.96,-939.51 832.92,-725.09 860.92,-630.36"/>
<polygon fill="black" stroke="black" points="864.52,-631.53 863.95,-620.95 857.8,-629.57 864.52,-631.53"/>
</g>
<!-- fastcompany -->
<g id="node10" class="node">
<title>fastcompany</title>
<ellipse fill="none" stroke="black" cx="874.8" cy="-1137.97" rx="112.61" ry="51.97"/>
<text text-anchor="middle" x="874.8" y="-1157.42" font-family="Times,serif" font-size="14.00">Fast Company &#45; Interview</text>
<text text-anchor="middle" x="874.8" y="-1124.92" font-family="Times,serif" font-size="14.00">Worker, Interrupted: The</text>
<text text-anchor="middle" x="874.8" y="-1108.42" font-family="Times,serif" font-size="14.00">Cost of Task Switching</text>
</g>
<!-- lifehacker&#45;&gt;fastcompany -->
<g id="edge8" class="edge">
<title>lifehacker&#45;&gt;fastcompany</title>
<path fill="none" stroke="black" d="M547.67,-1137.97C607.59,-1137.97 686.05,-1137.97 750.99,-1137.97"/>
<polygon fill="black" stroke="black" points="750.71,-1141.47 760.71,-1137.97 750.71,-1134.47 750.71,-1141.47"/>
</g>
<!-- gloriamark -->
<g id="node12" class="node">
<title>gloriamark</title>
<ellipse fill="none" stroke="black" stroke-dasharray="1,5" cx="1244.66" cy="-1512.97" rx="82.57" ry="18"/>
<text text-anchor="middle" x="1244.66" y="-1507.92" font-family="Times,serif" font-size="14.00">Gloria Mark said it</text>
</g>
<!-- fastcompany&#45;&gt;gloriamark -->
<g id="edge10" class="edge">
<title>fastcompany&#45;&gt;gloriamark</title>
<path fill="none" stroke="black" d="M922.39,-1185.47C1001.03,-1265.63 1157.47,-1425.11 1218.48,-1487.3"/>
<polygon fill="black" stroke="black" points="1215.6,-1489.38 1225.1,-1494.07 1220.6,-1484.48 1215.6,-1489.38"/>
</g>
<!-- themuse -->
<g id="node11" class="node">
<title>themuse</title>
<ellipse fill="none" stroke="black" cx="123.21" cy="-1137.97" rx="123.21" ry="63.64"/>
<text text-anchor="middle" x="123.21" y="-1165.67" font-family="Times,serif" font-size="14.00">the muse</text>
<text text-anchor="middle" x="123.21" y="-1133.17" font-family="Times,serif" font-size="14.00">This Is Nuts: It Takes Nearly</text>
<text text-anchor="middle" x="123.21" y="-1116.67" font-family="Times,serif" font-size="14.00">30 Minutes to Refocus</text>
<text text-anchor="middle" x="123.21" y="-1100.17" font-family="Times,serif" font-size="14.00">After You Get Distracted</text>
</g>
<!-- themuse&#45;&gt;lifehacker -->
<g id="edge9" class="edge">
<title>themuse&#45;&gt;lifehacker</title>
<path fill="none" stroke="black" d="M246.85,-1137.97C280.21,-1137.97 316.01,-1137.97 348.24,-1137.97"/>
<polygon fill="black" stroke="black" points="348.02,-1141.47 358.02,-1137.97 348.02,-1134.47 348.02,-1141.47"/>
</g>
<!-- idonethis -->
<g id="node13" class="node">
<title>idonethis</title>
<ellipse fill="none" stroke="black" cx="453.31" cy="-783.97" rx="155.56" ry="51.97"/>
<text text-anchor="middle" x="453.31" y="-803.42" font-family="Times,serif" font-size="14.00">idonethis</text>
<text text-anchor="middle" x="453.31" y="-770.92" font-family="Times,serif" font-size="14.00">How Distractions At Work</text>
<text text-anchor="middle" x="453.31" y="-754.42" font-family="Times,serif" font-size="14.00">Take Up More Time Than You Think</text>
</g>
<!-- idonethis&#45;&gt;chi08mark -->
<g id="edge11" class="edge">
<title>idonethis&#45;&gt;chi08mark</title>
<path fill="none" stroke="black" d="M564.37,-747.16C584.18,-739.7 604.47,-731.51 623.19,-722.97 686.34,-694.16 754.95,-655.26 804.39,-625.78"/>
<polygon fill="black" stroke="black" points="805.93,-628.34 812.71,-620.2 802.33,-622.34 805.93,-628.34"/>
</g>
<!-- ideatovalue -->
<g id="node14" class="node">
<title>ideatovalue</title>
<ellipse fill="none" stroke="black" cx="453.31" cy="-1003.97" rx="144.96" ry="51.97"/>
<text text-anchor="middle" x="453.31" y="-1023.42" font-family="Times,serif" font-size="14.00">idea to value</text>
<text text-anchor="middle" x="453.31" y="-990.92" font-family="Times,serif" font-size="14.00">It takes 23 minutes to regain focus</text>
<text text-anchor="middle" x="453.31" y="-974.42" font-family="Times,serif" font-size="14.00">after a distraction: Task Switching</text>
</g>
<!-- ideatovalue&#45;&gt;chi08mark -->
<g id="edge12" class="edge">
<title>ideatovalue&#45;&gt;chi08mark</title>
<path fill="none" stroke="black" d="M574.5,-975.29C592.37,-967.06 609.39,-956.51 623.19,-942.97 639.16,-927.31 630.42,-915.58 641.19,-895.97 697.44,-793.61 783.51,-687.07 833.67,-628.46"/>
<polygon fill="black" stroke="black" points="836.93,-631.04 840.8,-621.17 831.63,-626.47 836.93,-631.04"/>
</g>
<!-- ideatovalue&#45;&gt;fastcompany -->
<g id="edge13" class="edge">
<title>ideatovalue&#45;&gt;fastcompany</title>
<path fill="none" stroke="black" d="M562.61,-1038.57C626.89,-1059.1 707.9,-1084.98 771.15,-1105.18"/>
<polygon fill="black" stroke="black" points="769.96,-1108.79 780.55,-1108.5 772.09,-1102.13 769.96,-1108.79"/>
</g>
<!-- leaddev -->
<g id="node15" class="node">
<title>leaddev</title>
<ellipse fill="none" stroke="black" cx="453.31" cy="-173.97" rx="89.8" ry="51.97"/>
<text text-anchor="middle" x="453.31" y="-193.42" font-family="Times,serif" font-size="14.00">LeadDev</text>
<text text-anchor="middle" x="453.31" y="-160.92" font-family="Times,serif" font-size="14.00">Managing the chaos</text>
<text text-anchor="middle" x="453.31" y="-144.42" font-family="Times,serif" font-size="14.00">of context switching</text>
</g>
<!-- leaddev&#45;&gt;chi08mark -->
<g id="edge14" class="edge">
<title>leaddev&#45;&gt;chi08mark</title>
<path fill="none" stroke="black" d="M537,-192.98C566.16,-202.37 597.94,-215.91 623.19,-234.97 732.95,-317.83 814.79,-462.28 851.86,-536.31"/>
<polygon fill="black" stroke="black" points="849,-537.44 856.58,-544.85 855.27,-534.33 849,-537.44"/>
</g>
<!-- getabstract -->
<g id="node16" class="node">
<title>getabstract</title>
<ellipse fill="none" stroke="black" cx="453.31" cy="-893.97" rx="100.41" ry="40.31"/>
<text text-anchor="middle" x="453.31" y="-905.17" font-family="Times,serif" font-size="14.00">getabstract</text>
<text text-anchor="middle" x="453.31" y="-872.67" font-family="Times,serif" font-size="14.00">Twenty&#45;Three Minutes</text>
</g>
<!-- getabstract&#45;&gt;chi08mark -->
<g id="edge15" class="edge">
<title>getabstract&#45;&gt;chi08mark</title>
<path fill="none" stroke="black" stroke-dasharray="1,5" d="M544.74,-877.09C571.23,-869.73 599.43,-859.37 623.19,-844.97 716.88,-788.17 799.03,-687.49 842.01,-628.85"/>
<polygon fill="black" stroke="black" points="845.27,-631.32 848.32,-621.17 839.61,-627.2 845.27,-631.32"/>
</g>
<!-- getabstract&#45;&gt;fastcompany -->
<g id="edge16" class="edge">
<title>getabstract&#45;&gt;fastcompany</title>
<path fill="none" stroke="black" d="M542.63,-912.82C569.33,-920.29 598.17,-930.21 623.19,-942.97 696.3,-980.28 769.14,-1040.15 817.29,-1083.72"/>
<polygon fill="black" stroke="black" points="814.65,-1085.96 824.4,-1090.11 819.37,-1080.78 814.65,-1085.96"/>
</g>
<!-- gallup -->
<g id="node17" class="node">
<title>gallup</title>
<ellipse fill="none" stroke="black" cx="874.8" cy="-1512.97" rx="141.77" ry="40.31"/>
<text text-anchor="middle" x="874.8" y="-1524.17" font-family="Times,serif" font-size="14.00">gallup &#45; Interview</text>
<text text-anchor="middle" x="874.8" y="-1491.67" font-family="Times,serif" font-size="14.00">Too Many Interruptions at Work?</text>
</g>
<!-- gallup&#45;&gt;gloriamark -->
<g id="edge17" class="edge">
<title>gallup&#45;&gt;gloriamark</title>
<path fill="none" stroke="black" d="M1016.97,-1512.97C1061.8,-1512.97 1110.2,-1512.97 1150.73,-1512.97"/>
<polygon fill="black" stroke="black" points="1150.67,-1516.47 1160.67,-1512.97 1150.67,-1509.47 1150.67,-1516.47"/>
</g>
<!-- journalstar -->
<g id="node18" class="node">
<title>journalstar</title>
<ellipse fill="none" stroke="black" cx="453.31" cy="-1515.97" rx="169.88" ry="51.97"/>
<text text-anchor="middle" x="453.31" y="-1535.42" font-family="Times,serif" font-size="14.00">JournalStar</text>
<text text-anchor="middle" x="453.31" y="-1502.92" font-family="Times,serif" font-size="14.00">Frequent emails, phone call interruptions</text>
<text text-anchor="middle" x="453.31" y="-1486.42" font-family="Times,serif" font-size="14.00">affecting worker productivity</text>
</g>
<!-- journalstar&#45;&gt;gallup -->
<g id="edge18" class="edge">
<title>journalstar&#45;&gt;gallup</title>
<path fill="none" stroke="black" d="M623.42,-1514.76C656.03,-1514.53 689.99,-1514.29 722.01,-1514.06"/>
<polygon fill="black" stroke="black" points="721.81,-1517.55 731.78,-1513.98 721.76,-1510.55 721.81,-1517.55"/>
</g>
<!-- togglblog -->
<g id="node19" class="node">
<title>togglblog</title>
<ellipse fill="none" stroke="black" cx="453.31" cy="-51.97" rx="143.9" ry="51.97"/>
<text text-anchor="middle" x="453.31" y="-71.42" font-family="Times,serif" font-size="14.00">togglblog</text>
<text text-anchor="middle" x="453.31" y="-38.92" font-family="Times,serif" font-size="14.00">How to Get Back on Track</text>
<text text-anchor="middle" x="453.31" y="-22.42" font-family="Times,serif" font-size="14.00">When You Get Distracted at Work</text>
</g>
<!-- togglblog&#45;&gt;chi08mark -->
<g id="edge19" class="edge">
<title>togglblog&#45;&gt;chi08mark</title>
<path fill="none" stroke="black" d="M571.79,-81.59C590.3,-89.73 608.23,-100.01 623.19,-112.97 759.49,-231.02 833.55,-441.9 861.11,-535.72"/>
<polygon fill="black" stroke="black" points="857.95,-536.4 864.09,-545.03 864.67,-534.46 857.95,-536.4"/>
</g>
<!-- isrforum -->
<g id="node20" class="node">
<title>isrforum</title>
<ellipse fill="none" stroke="black" cx="874.8" cy="-1622.97" rx="182.61" ry="51.97"/>
<text text-anchor="middle" x="874.8" y="-1642.42" font-family="Times,serif" font-size="14.00">Presentation</text>
<text text-anchor="middle" x="874.8" y="-1609.92" font-family="Times,serif" font-size="14.00">The Challenge of Managing Digital</text>
<text text-anchor="middle" x="874.8" y="-1593.42" font-family="Times,serif" font-size="14.00">Information in the Workplace &#45; Gloria Mark</text>
</g>
<!-- isrforum&#45;&gt;gloriamark -->
<g id="edge20" class="edge">
<title>isrforum&#45;&gt;gloriamark</title>
<path fill="none" stroke="black" d="M1001.88,-1585.27C1063.7,-1566.79 1135.21,-1545.4 1184.34,-1530.71"/>
<polygon fill="black" stroke="black" points="1185.2,-1533.81 1193.78,-1527.59 1183.2,-1527.1 1185.2,-1533.81"/>
</g>
<!-- productivityjunkie -->
<g id="node21" class="node">
<title>productivityjunkie</title>
<ellipse fill="none" stroke="black" cx="453.31" cy="-1393.97" rx="142.31" ry="51.97"/>
<text text-anchor="middle" x="453.31" y="-1413.42" font-family="Times,serif" font-size="14.00">Productivityjunkie</text>
<text text-anchor="middle" x="453.31" y="-1380.92" font-family="Times,serif" font-size="14.00">23 minutes 15 seconds</text>
<text text-anchor="middle" x="453.31" y="-1364.42" font-family="Times,serif" font-size="14.00">and the mystery of sugar cravings</text>
</g>
<!-- notestoself -->
<g id="node22" class="node">
<title>notestoself</title>
<ellipse fill="none" stroke="black" stroke-dasharray="1,5" cx="874.8" cy="-1413.97" rx="120.45" ry="18"/>
<text text-anchor="middle" x="874.8" y="-1408.92" font-family="Times,serif" font-size="14.00">??? Podcast Notes to Self ???</text>
</g>
<!-- productivityjunkie&#45;&gt;notestoself -->
<g id="edge21" class="edge">
<title>productivityjunkie&#45;&gt;notestoself</title>
<path fill="none" stroke="black" d="M594.87,-1400.67C644.56,-1403.04 700.1,-1405.69 748.45,-1408"/>
<polygon fill="black" stroke="black" points="748.13,-1411.53 758.29,-1408.51 748.47,-1404.54 748.13,-1411.53"/>
</g>
<!-- notestoself&#45;&gt;gloriamark -->
<g id="edge30" class="edge">
<title>notestoself&#45;&gt;gloriamark</title>
<path fill="none" stroke="black" d="M935.31,-1429.99C1002.82,-1448.15 1112.41,-1477.65 1181.13,-1496.14"/>
<polygon fill="black" stroke="black" points="1179.82,-1499.68 1190.38,-1498.9 1181.64,-1492.92 1179.82,-1499.68"/>
</g>
<!-- brightdevelopers -->
<g id="node23" class="node">
<title>brightdevelopers</title>
<ellipse fill="none" stroke="black" cx="453.31" cy="-1271.97" rx="105.71" ry="51.97"/>
<text text-anchor="middle" x="453.31" y="-1291.42" font-family="Times,serif" font-size="14.00">Bright Developers</text>
<text text-anchor="middle" x="453.31" y="-1258.92" font-family="Times,serif" font-size="14.00">The Cost of Interruption</text>
<text text-anchor="middle" x="453.31" y="-1242.42" font-family="Times,serif" font-size="14.00">for Software Developers</text>
</g>
<!-- brightdevelopers&#45;&gt;fastcompany -->
<g id="edge22" class="edge">
<title>brightdevelopers&#45;&gt;fastcompany</title>
<path fill="none" stroke="black" d="M542.76,-1243.72C609.55,-1222.38 701.33,-1193.07 771.32,-1170.71"/>
<polygon fill="black" stroke="black" points="772.02,-1173.84 780.48,-1167.46 769.89,-1167.17 772.02,-1173.84"/>
</g>
<!-- wsj -->
<g id="node24" class="node">
<title>wsj</title>
<ellipse fill="none" stroke="black" cx="874.8" cy="-1744.97" rx="169.35" ry="51.97"/>
<text text-anchor="middle" x="874.8" y="-1764.42" font-family="Times,serif" font-size="14.00">Wall Street Journal</text>
<text text-anchor="middle" x="874.8" y="-1731.92" font-family="Times,serif" font-size="14.00">Workplace Distractions: Here&#39;s Why You</text>
<text text-anchor="middle" x="874.8" y="-1715.42" font-family="Times,serif" font-size="14.00">Won&#39;t Finish This Article</text>
</g>
<!-- wsj&#45;&gt;gloriamark -->
<g id="edge23" class="edge">
<title>wsj&#45;&gt;gloriamark</title>
<path fill="none" stroke="black" d="M1001.94,-1710.3C1021.12,-1702.86 1040.23,-1694.12 1057.41,-1683.97 1124.95,-1644.09 1188.94,-1576.58 1221.44,-1539.44"/>
<polygon fill="black" stroke="black" points="1224.74,-1541.97 1228.63,-1532.12 1219.44,-1537.39 1224.74,-1541.97"/>
</g>
<!-- ironistic -->
<g id="node25" class="node">
<title>ironistic</title>
<ellipse fill="none" stroke="black" cx="453.31" cy="-1863.97" rx="105.71" ry="51.97"/>
<text text-anchor="middle" x="453.31" y="-1883.42" font-family="Times,serif" font-size="14.00">Ironistic</text>
<text text-anchor="middle" x="453.31" y="-1850.92" font-family="Times,serif" font-size="14.00">The Cost of Distractions</text>
<text text-anchor="middle" x="453.31" y="-1834.42" font-family="Times,serif" font-size="14.00">on Developers!</text>
</g>
<!-- ironistic&#45;&gt;wsj -->
<g id="edge24" class="edge">
<title>ironistic&#45;&gt;wsj</title>
<path fill="none" stroke="black" d="M545.59,-1838.08C602.1,-1822.05 675.67,-1801.18 738.84,-1783.26"/>
<polygon fill="black" stroke="black" points="739.62,-1786.39 748.29,-1780.29 737.71,-1779.66 739.62,-1786.39"/>
</g>
<!-- jazzhanley -->
<g id="node26" class="node">
<title>jazzhanley</title>
<ellipse fill="none" stroke="black" cx="453.31" cy="-649.97" rx="106.24" ry="63.64"/>
<text text-anchor="middle" x="453.31" y="-677.67" font-family="Times,serif" font-size="14.00">Jazz Hanley</text>
<text text-anchor="middle" x="453.31" y="-645.17" font-family="Times,serif" font-size="14.00">Reclaim the 23 minutes</text>
<text text-anchor="middle" x="453.31" y="-628.67" font-family="Times,serif" font-size="14.00">you lose every time</text>
<text text-anchor="middle" x="453.31" y="-612.17" font-family="Times,serif" font-size="14.00">you&#39;re distracted at work</text>
</g>
<!-- jazzhanley&#45;&gt;chi08mark -->
<g id="edge25" class="edge">
<title>jazzhanley&#45;&gt;chi08mark</title>
<path fill="none" stroke="black" d="M556.39,-633.67C622.21,-623.16 707.43,-609.54 773,-599.07"/>
<polygon fill="black" stroke="black" points="773.44,-602.39 782.76,-597.35 772.33,-595.47 773.44,-602.39"/>
</g>
<!-- devmio -->
<g id="node27" class="node">
<title>devmio</title>
<ellipse fill="none" stroke="black" cx="453.31" cy="-1741.97" rx="106.24" ry="51.97"/>
<text text-anchor="middle" x="453.31" y="-1761.42" font-family="Times,serif" font-size="14.00">devmio</text>
<text text-anchor="middle" x="453.31" y="-1728.92" font-family="Times,serif" font-size="14.00">And it’s gone — The</text>
<text text-anchor="middle" x="453.31" y="-1712.42" font-family="Times,serif" font-size="14.00">true cost of interruptions</text>
</g>
<!-- devmio&#45;&gt;wsj -->
<g id="edge26" class="edge">
<title>devmio&#45;&gt;wsj</title>
<path fill="none" stroke="black" d="M559.89,-1742.73C600.68,-1743.02 648.5,-1743.36 694.35,-1743.69"/>
<polygon fill="black" stroke="black" points="694.31,-1747.2 704.33,-1743.77 694.36,-1740.2 694.31,-1747.2"/>
</g>
<!-- stephaniecmitchell -->
<g id="node28" class="node">
<title>stephaniecmitchell</title>
<ellipse fill="none" stroke="black" cx="123.21" cy="-1978.97" rx="96.17" ry="51.97"/>
<text text-anchor="middle" x="123.21" y="-1998.42" font-family="Times,serif" font-size="14.00">Stephanie C. Mitchell</text>
<text text-anchor="middle" x="123.21" y="-1965.92" font-family="Times,serif" font-size="14.00">What&#39;s Distracting</text>
<text text-anchor="middle" x="123.21" y="-1949.42" font-family="Times,serif" font-size="14.00">You From Writing?</text>
</g>
<!-- stephaniecmitchell&#45;&gt;chi2005 -->
<g id="edge27" class="edge">
<title>stephaniecmitchell&#45;&gt;chi2005</title>
<path fill="none" stroke="black" d="M219.55,-1978.97C268.51,-1978.97 327.43,-1978.97 373.74,-1978.97"/>
<polygon fill="black" stroke="black" points="373.62,-1982.47 383.62,-1978.97 373.62,-1975.47 373.62,-1982.47"/>
</g>
<!-- devbizops -->
<g id="node29" class="node">
<title>devbizops</title>
<ellipse fill="none" stroke="black" cx="123.21" cy="-1625.97" rx="95.11" ry="51.97"/>
<text text-anchor="middle" x="123.21" y="-1645.42" font-family="Times,serif" font-size="14.00">devbizops</text>
<text text-anchor="middle" x="123.21" y="-1612.92" font-family="Times,serif" font-size="14.00">Getting into the</text>
<text text-anchor="middle" x="123.21" y="-1596.42" font-family="Times,serif" font-size="14.00">Developer Flow State</text>
</g>
<!-- hbr -->
<g id="node30" class="node">
<title>hbr</title>
<ellipse fill="none" stroke="black" cx="453.31" cy="-1625.97" rx="138.59" ry="40.31"/>
<text text-anchor="middle" x="453.31" y="-1637.17" font-family="Times,serif" font-size="14.00">Hardvard Business Review</text>
<text text-anchor="middle" x="453.31" y="-1604.67" font-family="Times,serif" font-size="14.00">Help Your Employees Find Flow</text>
</g>
<!-- devbizops&#45;&gt;hbr -->
<g id="edge28" class="edge">
<title>devbizops&#45;&gt;hbr</title>
<path fill="none" stroke="black" d="M218.67,-1625.97C245.11,-1625.97 274.51,-1625.97 303.29,-1625.97"/>
<polygon fill="black" stroke="black" points="303.28,-1629.47 313.28,-1625.97 303.28,-1622.47 303.28,-1629.47"/>
</g>
<!-- hbr&#45;&gt;gallup -->
<g id="edge29" class="edge">
<title>hbr&#45;&gt;gallup</title>
<path fill="none" stroke="black" d="M556.12,-1598.55C617.8,-1581.93 696.6,-1560.71 760.28,-1543.55"/>
<polygon fill="black" stroke="black" points="761.02,-1546.71 769.77,-1540.73 759.2,-1539.95 761.02,-1546.71"/>
</g>
</g>
</svg>
